<?xml version="1.0" encoding="UTF-8"?>
<svg id="Layer_1" xmlns="http://www.w3.org/2000/svg" viewBox="0 0 298.43 183.91">
    <defs>
        <style>.cls-1,.cls-2{fill:#393080;}.cls-2{fill-rule:evenodd;}</style>
    </defs>
    <path class="cls-2"
          d="m155.86,70.19l-4.49-15.55c2.66-1.37,4.49-3.46,4.49-7.34s-3.69-8.23-8.24-8.23-8.23,4.36-8.23,8.23,1.82,5.97,4.49,7.34l-4.49,15.55h16.47Z"/>
    <path class="cls-2" d="m86.65,23.01V1.8H0v21.21h31.82v83.36h23.01V23.01h31.82Z"/>
    <path class="cls-2"
          d="m298.43,91.59v-45.42h-45.42v19.87h23.16v15.04c-5.88,4.21-13.1,6.32-21.66,6.32-4.68,0-8.94-.82-12.77-2.47-3.83-1.64-7.17-3.98-10.01-6.97-2.84-2.99-5.03-6.5-6.57-10.56-1.54-4.03-2.31-8.47-2.31-13.25v-.3c0-4.48.77-8.72,2.31-12.65,1.54-3.96,3.69-7.39,6.42-10.33,2.74-2.94,5.93-5.3,9.56-7.05,3.64-1.74,7.55-2.61,11.73-2.61,2.99,0,5.73.25,8.22.75,2.49.5,4.81,1.19,6.95,2.09,2.14.9,4.21,1.99,6.2,3.29,1.99,1.29,3.98,2.79,5.98,4.48l14.49-17.48c-2.69-2.29-5.48-4.33-8.37-6.12-2.89-1.79-5.98-3.29-9.26-4.48-3.29-1.2-6.85-2.12-10.68-2.76-3.83-.65-8.09-.97-12.77-.97-7.97,0-15.29,1.42-21.96,4.26-6.67,2.84-12.45,6.72-17.33,11.65-4.88,4.93-8.69,10.66-11.43,17.18-2.74,6.52-4.11,13.52-4.11,20.99v.3c0,7.77,1.34,14.94,4.03,21.51,2.69,6.57,6.45,12.25,11.28,17.03,4.83,4.78,10.61,8.52,17.33,11.2,6.72,2.69,14.17,4.03,22.34,4.03,9.56,0,18.05-1.62,25.47-4.86,7.42-3.24,13.82-7.15,19.2-11.73h0Z"/>
    <path class="cls-2"
          d="m172.46,71.35c-.83,1.35-1.71,2.69-2.69,4-6.26,8.33-14.45,13.64-22.25,16.4-7.8-2.76-15.99-8.07-22.25-16.4-6.22-8.27-9.29-17.58-9.29-25.07v-14.89s11.39-12.85,31.29-12.85h.49c13.74,0,23.42,6.12,28.1,9.91l14.78-17.08h0c-2.72-2.18-7.28-5.41-10.16-7.2-2.87-1.78-5.95-3.27-9.22-4.46-3.27-1.19-6.82-2.11-10.63-2.75-3.82-.64-8.05-.97-12.71-.97-7.93,0-15.22,1.41-21.86,4.24-6.64,2.83-12.39,6.69-17.25,11.6-4.86,4.91-8.65,10.61-11.37,17.1-2.73,6.49-4.09,13.46-4.09,20.89v.59c0,7.44,1.36,14.4,4.09,20.89,2.73,6.49,6.52,12.19,11.37,17.1,4.86,4.91,10.61,8.77,17.25,11.6,6.64,2.83,13.93,4.24,21.86,4.24,4.66,0,8.9-.32,12.71-.97,3.82-.64,7.36-1.56,10.63-2.75,3.27-1.19,6.34-2.68,9.22-4.46,2.87-1.78,8.63-6.86,11.31-9.14v-.06s-19.33-19.52-19.33-19.52Z"/>
    <path class="cls-1"
          d="m31.99,130.13h11.63v20.92h21.45v-20.92h11.63v52.87h-11.63v-21.22h-21.45v21.22h-11.63v-52.87Z"/>
    <path class="cls-1"
          d="m92.72,156.72v-.15c0-15.03,11.86-27.34,28.17-27.34s28.02,12.16,28.02,27.19v.15c0,15.03-11.86,27.34-28.17,27.34s-28.02-12.16-28.02-27.19Zm44.04,0v-.15c0-9.06-6.65-16.62-16.01-16.62s-15.86,7.4-15.86,16.47v.15c0,9.06,6.65,16.62,16.01,16.62s15.86-7.4,15.86-16.47Z"/>
    <path class="cls-1"
          d="m164.93,130.13h12.54l13.9,22.36,13.9-22.36h12.54v52.87h-11.56v-34.52l-14.88,22.58h-.3l-14.73-22.36v34.29h-11.41v-52.87Z"/>
    <path class="cls-1" d="m236.15,130.13h39.88v10.35h-28.32v10.73h24.93v10.35h-24.93v11.1h28.7v10.35h-40.26v-52.87Z"/>
</svg>