<?xml version="1.0" encoding="utf-8"?><!-- Uploaded to: SVG Repo, www.svgrepo.com, Generator: SVG Repo Mixer Tools -->
<svg fill="#000000" width="800px" height="800px" viewBox="0 0 24 24" id="add-user-9" data-name="Line Color" xmlns="http://www.w3.org/2000/svg" class="icon line-color"><path id="secondary" d="M17,5h4M19,3V7" style="fill: none; stroke: rgb(44, 169, 188); stroke-linecap: round; stroke-linejoin: round; stroke-width: 2;"></path><path id="primary" d="M16.65,11a5.71,5.71,0,0,1-1,1.77,1,1,0,0,0,.28,1.45A7,7,0,0,1,19,20a1,1,0,0,1-1,1H4a1,1,0,0,1-1-1,7,7,0,0,1,3.06-5.78,1,1,0,0,0,.28-1.45A5.94,5.94,0,0,1,5,9a6,6,0,0,1,6.73-6,5.47,5.47,0,0,1,1.27.3" style="fill: none; stroke: rgb(0, 0, 0); stroke-linecap: round; stroke-linejoin: round; stroke-width: 2;"></path></svg>