<?xml version="1.0" standalone="no"?>
<!DOCTYPE svg PUBLIC "-//W3C//DTD SVG 20010904//EN"
 "http://www.w3.org/TR/2001/REC-SVG-20010904/DTD/svg10.dtd">
<svg version="1.0" xmlns="http://www.w3.org/2000/svg"
 width="200.000000pt" height="200.000000pt" viewBox="0 0 200.000000 200.000000"
 preserveAspectRatio="xMidYMid meet">

<g transform="translate(0.000000,200.000000) scale(0.100000,-0.100000)"
fill="#fff" stroke="none">
<path d="M0 1000 l0 -1000 1000 0 1000 0 0 1000 0 1000 -1000 0 -1000 0 0
-1000z m267 -358 l43 -77 0 78 c0 75 1 77 25 77 l25 0 0 -115 0 -115 -30 0
c-26 0 -34 8 -70 73 l-40 72 0 -72 c0 -71 -1 -73 -25 -73 l-25 0 0 115 0 115
28 0 c23 0 32 -10 69 -78z m1113 58 c0 -15 -7 -20 -25 -20 -25 0 -25 0 -25
-96 l0 -95 -27 3 c-27 3 -27 3 -27 93 l-1 90 -27 3 c-20 2 -28 9 -28 23 0 17
8 19 80 19 73 0 80 -2 80 -20z m208 -12 c3 -27 2 -27 -28 -16 -63 21 -113 -51
-75 -109 14 -21 23 -24 61 -21 39 3 44 1 44 -18 0 -54 -112 -43 -157 16 -32
42 -19 126 24 160 21 16 38 20 77 18 47 -3 51 -5 54 -30z m230 0 c3 -26 2 -26
-32 -17 -67 19 -116 -29 -94 -91 11 -30 25 -40 61 -40 20 0 27 5 27 20 0 11
-7 20 -15 20 -9 0 -15 9 -15 25 0 23 4 25 40 25 l40 0 0 -60 c0 -72 -16 -85
-93 -77 -69 6 -107 47 -107 113 0 39 5 51 35 81 32 32 37 34 92 31 55 -3 58
-5 61 -30z m-1285 -46 c10 -9 17 -29 17 -49 l0 -33 -51 0 c-46 0 -50 -2 -38
-16 8 -10 24 -14 46 -12 29 4 33 1 31 -16 -2 -17 -11 -22 -45 -24 -57 -4 -93
29 -93 85 1 79 76 115 133 65z m535 22 c13 -4 22 -14 22 -25 0 -15 -5 -18 -24
-13 -38 9 -39 -12 -1 -36 41 -26 47 -61 13 -84 -38 -27 -98 -18 -98 14 0 16 6
18 35 13 40 -6 49 12 12 26 -52 20 -61 76 -15 99 28 13 28 13 56 6z m-417 -26
l12 -22 17 22 c11 13 29 22 45 22 l27 0 -32 -39 -31 -40 26 -40 c31 -49 31
-51 2 -51 -14 0 -29 10 -39 27 l-16 27 -13 -27 c-9 -20 -19 -27 -41 -27 l-29
0 31 45 31 45 -19 28 c-34 50 -35 52 -8 52 16 0 30 -8 37 -22z m179 -38 c0
-47 4 -62 16 -67 25 -9 44 24 44 79 0 45 2 48 25 48 26 0 26 0 23 -82 -3 -77
-5 -83 -25 -86 -13 -2 -23 2 -23 8 0 7 -6 8 -19 0 -60 -32 -91 -1 -91 91 0 67
1 69 25 69 24 0 25 -3 25 -60z"/>
<path d="M462 618 c-18 -18 -14 -28 11 -28 30 0 40 10 26 27 -14 16 -22 16
-37 1z"/>
</g>
</svg>
